<svg width="16" height="18" viewBox="0 0 16 18" fill="none" xmlns="http://www.w3.org/2000/svg">
<path d="M2.19874 11.5312L6.7246 3.5C7.29949 3.85082 10.1984 5.51375 10.6666 5.83002L6.14076 13.8617C5.6458 14.5395 1.57166 12.5598 2.19874 11.5308V11.5312Z" fill="#FBBC04" fill-opacity="0.8"/>
<path d="M14.6471 11.6373L10.3975 3.50238C9.80342 2.39678 8.52392 1.99501 7.47296 2.64799C6.42201 3.30098 6.10201 4.7076 6.69611 5.86257L10.9457 13.9985C11.5398 15.1035 12.8194 15.5053 13.8703 14.8523C14.8753 14.1993 15.2413 12.7418 14.6471 11.6373Z" fill="#4285F4"/>
<path d="M4.26663 15.1667C5.44484 15.1667 6.39996 14.122 6.39996 12.8333C6.39996 11.5447 5.44484 10.5 4.26663 10.5C3.08843 10.5 2.1333 11.5447 2.1333 12.8333C2.1333 14.122 3.08843 15.1667 4.26663 15.1667Z" fill="#34A853" fill-opacity="0.8"/>
</svg>
