<svg width="16" height="18" viewBox="0 0 16 18" fill="none" xmlns="http://www.w3.org/2000/svg">
<path d="M8.75794 12.7887C8.9695 12.7455 9.35029 12.659 9.35029 12.1403C9.35029 12.1403 9.30798 10.8435 9.90033 10.6706C10.4927 10.4977 11.2543 11.9242 12.0582 12.4861C12.6505 12.8751 13.1159 12.8319 13.1159 12.8319L15.2738 12.7887C15.2738 12.7887 16.3739 12.7022 15.8661 11.7945C15.8238 11.708 15.4853 11.1461 14.216 9.97898C12.9044 8.68219 13.1159 8.89832 14.6814 6.69379C15.6546 5.35378 16.0777 4.53248 15.9507 4.2299C15.7815 3.92732 15.1045 3.97054 15.1045 3.97054H12.6928C12.439 3.97054 12.312 4.01377 12.1851 4.2299C12.1851 4.2299 11.8043 5.31055 11.2966 6.17508C10.2388 8.0338 9.81571 8.12025 9.60416 7.99058C9.22336 7.77444 9.30798 6.95315 9.30798 6.39121C9.30798 4.44603 9.60416 3.75441 8.75794 3.58151C8.2079 3.49506 6.26162 3.4086 5.66927 3.71119C5.37309 3.88409 5.20385 4.18667 5.33078 4.2299C5.45772 4.2299 5.83851 4.27313 6.05006 4.53248C6.38855 5.09442 6.43086 7.77444 5.96544 8.0338C5.33078 8.50929 3.72298 5.35378 3.34218 4.31635C3.25756 4.057 3.13063 4.01377 2.83446 3.92732H0.507374C0.25351 3.92732 -0.127286 3.97054 0.0419569 4.48926C1.18434 6.90992 3.55374 12.8319 7.82711 12.7887H8.75794Z" fill="#4875E8" fill-opacity="0.8"/>
</svg>
