<svg width="16" height="18" viewBox="0 0 16 18" fill="none" xmlns="http://www.w3.org/2000/svg">
<path d="M10.0949 2.3335H8.30891C6.5229 2.3335 4.70565 3.70842 4.70565 6.74241C4.66831 7.44566 4.82121 8.14579 5.14745 8.76538C5.47369 9.38496 5.96055 9.89984 6.55416 10.253L4.34398 14.3091C4.29332 14.3972 4.2666 14.4977 4.2666 14.6001C4.2666 14.7025 4.29332 14.8029 4.34398 14.8911C4.38981 14.9719 4.45477 15.0394 4.53283 15.0875C4.61089 15.1355 4.69951 15.1626 4.79048 15.1661H5.90227C6.01507 15.1717 6.12686 15.1418 6.22263 15.0804C6.3184 15.019 6.39357 14.9289 6.43807 14.8224L8.48751 10.6976H8.63932V14.6482C8.63982 14.7188 8.65427 14.7886 8.68178 14.8533C8.70928 14.918 8.74928 14.9763 8.79936 15.0247C8.84944 15.0731 8.90855 15.1106 8.97313 15.1349C9.03772 15.1592 9.10643 15.1698 9.17512 15.1661H10.1485C10.2797 15.1711 10.4075 15.123 10.5044 15.0321C10.6013 14.9412 10.6595 14.8148 10.6664 14.6803V2.89263C10.6682 2.821 10.6562 2.74972 10.6312 2.68285C10.6061 2.61598 10.5684 2.55483 10.5203 2.50291C10.4722 2.45098 10.4146 2.4093 10.3508 2.38023C10.287 2.35116 10.2183 2.33528 10.1485 2.3335H10.0949ZM8.67504 8.87813H8.4116C7.38465 8.87813 6.77741 8.02109 6.77741 6.58659C6.77741 4.79919 7.54986 4.16214 8.26872 4.16214H8.68843L8.67504 8.87813Z" fill="#D61E3B" fill-opacity="0.8"/>
</svg>
